<svg width="250" height="250" viewBox="0 0 250 250" fill="none" xmlns="http://www.w3.org/2000/svg">
<g filter="url(#filter0_d_51_2885)">
<rect x="40" y="20" width="170" height="170" rx="15" fill="#08415C"/>
</g>
<path fill-rule="evenodd" clip-rule="evenodd" d="M113.589 63.667H134.089V73.917H144.339C148.097 73.917 151.172 76.992 151.172 80.7503V96.5353L155.545 97.9703C156.434 98.2437 157.185 98.8587 157.595 99.6787C158.005 100.499 158.074 101.455 157.8 102.344L151.343 125.167H151.172C145.705 125.167 140.854 122.16 137.505 118.334C134.157 122.16 129.305 125.167 123.839 125.167C118.372 125.167 113.52 122.16 110.172 118.334C106.824 122.16 101.972 125.167 96.5054 125.167H96.3345L89.8429 102.344C89.5354 101.455 89.6379 100.499 90.0479 99.6787C90.4579 98.8587 91.2095 98.2437 92.0979 97.9703L96.5054 96.5353V80.7503C96.5054 76.992 99.5804 73.917 103.339 73.917H113.589V63.667ZM127.256 73.917V70.5003H120.422V73.917H127.256ZM142.22 100.84L123.838 94.7928L105.457 100.772L97.2568 103.471L99.9177 114.917C101.84 114.917 104.45 114.329 106.124 113.235L110.172 109.792L114.986 114.236C116.587 115.518 119.704 118.334 123.838 118.334C127.973 118.334 131.081 115.131 132.79 113.929L137.506 109.792L141.005 112.431C143.228 114.028 145.77 114.917 147.751 114.917L150.386 103.505L142.22 100.84ZM103.339 80.7503V94.3145L123.839 87.5837L144.339 94.3145V80.7503H103.339Z" fill="white"/>
<path d="M123.839 131.864C128.588 131.864 133.337 130.395 137.506 127.49C141.674 130.395 146.423 132 151.172 132H158.006V138.834H151.172C146.457 138.834 141.811 137.672 137.506 135.451C133.201 137.672 128.52 138.765 123.839 138.765C119.158 138.765 114.477 137.638 110.172 135.451C105.867 137.638 101.221 138.834 96.5056 138.834H89.6722V132H96.5056C101.255 132 106.004 130.395 110.172 127.49C114.341 130.395 119.09 131.864 123.839 131.864Z" fill="white"/>
<defs>
<filter id="filter0_d_51_2885" x="0" y="0" width="250" height="250" filterUnits="userSpaceOnUse" color-interpolation-filters="sRGB">
<feFlood flood-opacity="0" result="BackgroundImageFix"/>
<feColorMatrix in="SourceAlpha" type="matrix" values="0 0 0 0 0 0 0 0 0 0 0 0 0 0 0 0 0 0 127 0" result="hardAlpha"/>
<feOffset dy="20"/>
<feGaussianBlur stdDeviation="20"/>
<feColorMatrix type="matrix" values="0 0 0 0 0 0 0 0 0 0 0 0 0 0 0.262745 0 0 0 0.1 0"/>
<feBlend mode="normal" in2="BackgroundImageFix" result="effect1_dropShadow_51_2885"/>
<feBlend mode="normal" in="SourceGraphic" in2="effect1_dropShadow_51_2885" result="shape"/>
</filter>
</defs>
</svg>
