<svg width="80" height="80" viewBox="0 0 80 80" fill="none" xmlns="http://www.w3.org/2000/svg">
<path d="M40 80C62.0914 80 80 62.0914 80 40C80 17.9086 62.0914 0 40 0C17.9086 0 0 17.9086 0 40C0 62.0914 17.9086 80 40 80Z" fill="#F87853"/>
<path d="M40 80C62.0914 80 80 62.0914 80 40C80 17.9086 62.0914 0 40 0C17.9086 0 0 17.9086 0 40C0 62.0914 17.9086 80 40 80Z" fill="#00405F" fill-opacity="0.5"/>
<g clip-path="url(#clip0_51_2889)">
<path fill-rule="evenodd" clip-rule="evenodd" d="M23.6509 20.1281L18.2612 20.3497L21.2005 22.9667C12.4088 32.3065 13.0073 46.5195 22.7355 55.178C23.3805 55.7514 24.0577 56.2939 24.7644 56.8033C24.7644 56.8033 10.4322 42.1527 26.221 27.4562L29.0305 29.9285V19.8892L23.6509 20.1281Z" fill="#FFFCFB"/>
<path fill-rule="evenodd" clip-rule="evenodd" d="M61.6228 26.6072C60.4469 24.7099 58.975 22.9777 57.2531 21.4648C49.8396 14.8436 39.201 13.3401 30.3047 16.8086C30.3047 16.8086 48.8517 13.7769 55.4063 29.5657L51.6603 31.3366L56.7331 33.0095L61.8049 34.687L63.3661 29.8605L64.9273 25.0588L61.6228 26.6072Z" fill="#FFFCFB"/>
<path fill-rule="evenodd" clip-rule="evenodd" d="M37.0702 54.9116L38.059 51.661L33.2991 54.0134L28.5391 56.3419L31.2701 60.6831L34.0012 65.0004L35.1459 61.1931C43.2616 62.6719 51.9497 60.3928 58.0888 54.4016C63.1868 49.4295 65.4501 42.9054 64.929 36.5269C64.929 36.5269 61.521 58.5944 37.0652 54.9116H37.0702Z" fill="#FFFCFB"/>
</g>
<defs>
<clipPath id="clip0_51_2889">
<rect width="50" height="50" fill="white" transform="translate(15 15)"/>
</clipPath>
</defs>
</svg>
