<svg width="80" height="80" viewBox="0 0 80 80" fill="none" xmlns="http://www.w3.org/2000/svg">
<path d="M40 80C62.0914 80 80 62.0914 80 40C80 17.9086 62.0914 0 40 0C17.9086 0 0 17.9086 0 40C0 62.0914 17.9086 80 40 80Z" fill="#F87853"/>
<path d="M40 80C62.0914 80 80 62.0914 80 40C80 17.9086 62.0914 0 40 0C17.9086 0 0 17.9086 0 40C0 62.0914 17.9086 80 40 80Z" fill="#00405F"/>
<g clip-path="url(#clip0_51_2888)">
<path fill-rule="evenodd" clip-rule="evenodd" d="M29.7165 44.3384L23 55.9322L29.4103 55.546L31.8068 61L38.8732 48.8021C38.1966 48.3694 37.5372 47.6313 36.8527 47.4813C35.7283 47.2344 34.0664 48.1049 33.0172 47.6359C32.0933 47.2231 31.8861 45.5225 31.089 44.9049C30.7376 44.6326 30.2387 44.4774 29.7165 44.3384V44.3384Z" fill="#FFFCFB"/>
<path fill-rule="evenodd" clip-rule="evenodd" d="M50.1882 44.1812C49.8956 44.2654 49.6305 44.3724 49.4279 44.5328C48.5306 45.2424 48.1909 47.0627 47.1654 47.5756C46.2624 48.027 44.7796 47.123 43.7924 47.3492C42.9255 47.5476 42.0645 48.4854 41.1875 48.9117L48.1917 61.0005L50.5862 55.546L56.9962 55.9325L50.1882 44.1812Z" fill="#FFFCFB"/>
<path fill-rule="evenodd" clip-rule="evenodd" d="M46.4927 46.5225C45.6386 46.9497 44.2351 46.0945 43.3023 46.3085C42.2415 46.5514 41.1895 47.9639 40.1009 47.987C39.1417 48.0072 38.2546 46.6399 37.318 46.4343C36.2544 46.2009 34.6822 47.0241 33.6897 46.5805C32.8159 46.1902 32.6188 44.5813 31.8663 43.9969C31.0099 43.3335 29.2284 43.4044 28.5292 42.5835C27.9136 41.8595 28.4473 40.3278 28.0256 39.4807C27.5466 38.5184 25.9084 37.823 25.6412 36.7848C25.4053 35.8699 26.5631 34.7184 26.557 33.7763C26.5498 32.7059 25.3799 31.3822 25.5972 30.3334C25.7886 29.4104 27.3413 28.8678 27.7521 28.0169C28.2183 27.0506 27.748 25.36 28.407 24.5091C28.9859 23.7591 30.6273 23.9322 31.3734 23.3426C32.2209 22.6714 32.5433 20.9485 33.5135 20.4642C34.3679 20.0373 35.771 20.8922 36.7041 20.6785C37.764 20.4356 38.8161 19.0231 39.9058 18.9997C40.8647 18.9795 41.7518 20.3468 42.6884 20.5522C43.7521 20.7858 45.3243 19.9626 46.317 20.4059C47.1905 20.7965 47.3879 22.4054 48.1404 22.9895C48.9966 23.653 50.778 23.582 51.4773 24.4029C52.0929 25.1266 51.5592 26.6586 51.9809 27.5055C52.4602 28.4677 54.0981 29.1632 54.3655 30.2013C54.6008 31.1154 53.4428 32.2666 53.4492 33.2089C53.4564 34.2791 54.6263 35.6031 54.4089 36.6516C54.2176 37.5746 52.6648 38.1172 52.2544 38.9681C51.7878 39.9344 52.2582 41.625 51.5991 42.4759C51.0203 43.2259 49.3789 43.0528 48.6328 43.6427C47.7853 44.3136 47.4629 46.0368 46.4927 46.5208V46.5225Z" fill="#FFFCFB"/>
<path fill-rule="evenodd" clip-rule="evenodd" d="M51.7028 33.4934C51.7028 36.1908 50.7643 38.8048 49.0473 40.89C47.3302 42.9751 44.9408 44.4024 42.2861 44.9287C39.6315 45.4549 36.8759 45.0475 34.4888 43.776C32.1018 42.5044 30.231 40.4473 29.1952 37.9552C28.1594 35.4631 28.0228 32.6901 28.8085 30.1088C29.5942 27.5275 31.2536 25.2976 33.5041 23.7989C35.7546 22.3003 38.4569 21.6257 41.1505 21.8901C43.8441 22.1545 46.3624 23.3416 48.2763 25.249C50.4702 27.4355 51.7028 30.4011 51.7028 33.4934V33.4934Z" fill="#00405F"/>
<path fill-rule="evenodd" clip-rule="evenodd" d="M50.2217 33.4936C50.2217 35.851 49.4016 38.1354 47.901 39.9577C46.4004 41.78 44.3122 43.0273 41.9923 43.4872C39.6723 43.9472 37.2641 43.5912 35.178 42.4799C33.0919 41.3687 31.457 39.571 30.5518 37.3931C29.6465 35.2152 29.527 32.7918 30.2136 30.5359C30.9003 28.2801 32.3505 26.3313 34.3172 25.0215C36.2839 23.7118 38.6455 23.1222 40.9995 23.3533C43.3535 23.5843 45.5544 24.6216 47.227 26.2885C48.1764 27.2346 48.9296 28.3579 49.4434 29.5942C49.9572 30.8305 50.2217 32.1555 50.2217 33.4936V33.4936Z" fill="#FFFCFB"/>
<path fill-rule="evenodd" clip-rule="evenodd" d="M33.2422 33.6354L36.5128 36.8949L38.2204 38.595L39.9266 36.8949L46.7496 30.093L45.0437 28.3926L38.2204 35.1939L34.9498 31.9344L33.2422 33.6354Z" fill="#00405F"/>
</g>
<defs>
<clipPath id="clip0_51_2888">
<rect width="34" height="42" fill="white" transform="translate(23 19)"/>
</clipPath>
</defs>
</svg>
