<svg width="80" height="80" viewBox="0 0 80 80" fill="none" xmlns="http://www.w3.org/2000/svg">
<path d="M40 80C62.0914 80 80 62.0914 80 40C80 17.9086 62.0914 0 40 0C17.9086 0 0 17.9086 0 40C0 62.0914 17.9086 80 40 80Z" fill="#F87853"/>
<path d="M40 80C62.0914 80 80 62.0914 80 40C80 17.9086 62.0914 0 40 0C17.9086 0 0 17.9086 0 40C0 62.0914 17.9086 80 40 80Z" fill="#9F3030"/>
<g clip-path="url(#clip0_51_2887)">
<path d="M40.5692 12C40.7159 12.8473 40.9878 13.6946 40.9901 14.5459C41.0187 25.6347 41.025 36.7233 41.0092 47.8116V50.1379C43.8152 50.4291 46.2985 50.6678 48.3896 48.2651C49.1656 47.374 50.7509 46.8545 52.0025 46.7821C55.4474 46.5824 58.9121 46.7352 62.368 46.6946C63.8186 46.6771 64.2989 47.0717 63.8202 48.6327C61.879 54.9607 61.9178 54.9735 55.292 54.9735C52.5811 54.9735 49.8687 54.9289 47.1602 55.014C46.6219 55.0307 46.0988 55.5431 45.5685 55.8271C46.1131 56.0865 46.6544 56.5598 47.2038 56.5702C50.9292 56.637 54.6587 56.5988 58.3865 56.6131C59.0999 56.6131 59.8133 56.7038 60.533 56.7524C60.212 59.2776 58.4912 60.9419 55.9658 60.957C45.4607 61.0183 34.9541 61.0366 24.4498 60.9061C23.2466 60.891 21.4988 60.1758 20.9621 59.2354C19.4624 56.5933 18.4645 53.6663 17.0781 50.4044H39.3803V47.8426C39.3803 36.7538 39.3858 25.6652 39.3969 14.5769C39.3969 13.7177 39.6291 12.8592 39.7536 12L40.5692 12Z" fill="#FFFCFB"/>
<path d="M42.6382 30.1966C42.6382 26.0524 42.6303 21.9074 42.6382 17.7624C42.6446 15.4616 42.9458 15.238 45.1287 16.0917C53.5126 19.383 58.2155 25.6745 59.643 34.4529C60.0394 36.9081 59.9117 39.4548 59.9648 41.9608C59.991 43.1892 59.5344 43.9037 58.0744 43.9896C53.5491 44.2553 49.031 44.6515 44.52 45.062C43.0829 45.1925 42.601 44.669 42.6176 43.2425C42.6778 38.8947 42.639 34.5452 42.6382 30.1966Z" fill="#FFFCFB"/>
<path d="M16 40.0727C16.864 39.6352 17.5441 39.2453 18.2591 38.9366C25.5031 35.8076 31.242 30.9164 35.4303 24.2024C35.5381 24.0298 35.6 23.8046 35.7474 23.6869C36.2333 23.3082 36.7493 22.9709 37.2535 22.6152C37.4199 23.157 37.729 23.698 37.729 24.2406C37.7639 29.8845 37.7687 35.5286 37.7433 41.173C37.7179 45.9084 38.3338 45.6164 33.6469 44.9568C28.3226 44.2082 23.1046 42.695 17.8453 41.4905C17.3959 41.387 16.9734 41.1285 16.5675 40.8922C16.4169 40.7999 16.3408 40.5748 16 40.0727Z" fill="#FFFCFB"/>
</g>
<defs>
<clipPath id="clip0_51_2887">
<rect width="48" height="49" fill="white" transform="translate(16 12)"/>
</clipPath>
</defs>
</svg>
