<svg width="795" height="872" viewBox="0 0 795 872" fill="none" xmlns="http://www.w3.org/2000/svg">
<g clip-path="url(#clip0_37_2654)">
<path d="M287.717 541.384C287.717 542.073 287.717 543.45 287.717 544.139C287.717 543.45 287.717 542.073 287.717 541.384C287.717 541.384 288.405 541.384 289.094 541.384H287.717Z" fill="#3F3F3F"/>
<path d="M282.211 540.007C279.458 540.007 278.769 540.695 278.769 541.384C278.769 542.762 278.769 543.45 278.769 544.828C278.081 544.139 277.393 542.762 276.704 542.073C276.704 540.695 276.704 539.318 277.393 538.629C278.769 538.629 280.146 538.629 280.834 539.318L282.211 540.007Z" fill="#3F3F3F"/>
<path d="M307.677 193.549C296.664 199.059 284.274 205.258 270.508 212.146C256.742 219.034 242.287 225.921 227.832 233.498C213.378 240.386 198.235 247.274 185.157 254.162C171.391 261.049 158.313 266.56 147.3 271.381C136.287 276.203 126.651 280.335 120.456 283.091L110.131 287.223C110.131 287.223 113.573 285.157 119.768 281.713C125.962 278.269 134.91 273.448 145.923 267.937C156.936 262.427 169.326 255.539 183.092 249.34C196.858 242.452 211.313 235.564 225.767 227.988C240.222 221.1 255.365 214.212 268.443 207.324C282.209 200.436 295.287 194.926 306.3 190.105C317.313 185.283 326.949 181.151 333.144 178.395L343.469 174.263C343.469 174.263 340.027 176.329 333.832 179.773C327.638 183.217 318.69 188.038 307.677 193.549Z" fill="#3F3F3F"/>
<path d="M253.295 371.254C256.736 367.121 262.243 360.233 268.438 352.657C274.632 345.08 282.204 336.126 290.464 326.483C298.723 316.84 306.983 307.197 315.931 296.865C324.879 287.222 333.827 276.891 342.087 267.937C350.347 258.982 358.607 250.028 364.801 243.14C371.684 235.564 377.191 230.053 381.321 225.921C385.451 221.788 387.516 219.722 387.516 219.722L382.009 226.61C378.568 230.742 373.061 237.63 366.866 245.207C360.671 252.783 353.1 261.737 344.84 271.38C336.581 281.023 328.321 290.666 319.373 300.998C310.425 310.641 301.477 320.973 293.217 329.927C284.957 338.881 276.697 347.835 270.503 354.723C263.62 362.3 258.113 367.81 253.983 371.943C249.853 376.076 247.788 378.142 247.788 378.142C247.788 378.142 249.853 375.387 253.295 371.254Z" fill="#3F3F3F"/>
<path d="M550.651 389.163C550.651 396.74 549.274 405.005 549.274 413.27C549.274 417.403 549.274 421.536 549.274 425.668C549.274 429.801 549.274 433.934 549.274 437.378C549.274 441.511 549.274 444.954 549.274 448.398C549.274 451.842 549.274 455.286 549.274 458.041C549.274 460.796 549.274 464.24 549.274 466.307C549.274 469.062 549.274 471.128 549.274 472.506V478.016C549.274 478.016 549.274 475.95 548.586 472.506C547.897 469.062 546.521 464.24 545.832 458.041C545.832 455.286 545.144 451.842 544.456 447.71C544.456 444.266 543.767 440.133 543.767 436.689C543.767 432.556 543.767 428.424 543.767 424.98C543.767 420.847 543.767 416.714 543.767 412.582C543.767 408.449 543.767 404.316 544.456 400.183C544.456 396.051 545.144 391.918 545.832 388.474C547.209 380.898 548.586 373.321 549.962 367.811C551.339 361.612 552.716 356.79 553.404 353.346C554.78 349.902 555.469 347.836 555.469 347.836C555.469 347.836 554.092 356.101 552.715 368.499C552.027 374.698 551.339 381.586 550.651 389.163Z" fill="#3F3F3F"/>
<path d="M553.404 232.809C552.716 241.763 551.339 253.473 550.651 265.182C549.274 276.891 547.897 288.601 547.209 297.555C547.209 301.688 546.521 305.82 545.832 308.575C545.832 311.331 545.832 312.708 545.832 312.708C545.832 312.708 545.832 306.509 545.144 297.555C545.144 293.422 545.144 287.912 545.144 282.402C545.144 276.891 545.832 270.692 546.521 265.182C547.897 253.473 549.274 241.763 551.339 232.809C552.027 228.676 553.404 224.544 554.092 222.477C554.092 219.722 555.469 218.345 555.469 218.345C555.469 218.345 555.469 219.722 555.469 222.477C555.469 225.233 555.469 228.676 554.78 233.498L553.404 232.809Z" fill="#3F3F3F"/>
<path d="M570.612 117.093C569.235 121.225 567.858 125.358 566.482 130.868C565.105 135.69 563.728 141.2 562.352 146.71C560.975 152.221 560.287 157.042 558.91 162.552C558.222 167.374 557.534 172.195 556.845 176.328C556.845 178.394 556.845 180.461 556.157 181.838V185.971C556.157 188.037 555.469 190.104 555.469 190.104C555.469 190.104 555.469 188.726 555.469 185.971C555.469 183.216 555.469 179.772 555.469 175.639C555.469 173.573 555.469 171.507 555.469 168.752C555.469 166.685 555.469 163.93 555.469 161.175C555.469 155.665 556.845 150.154 558.222 145.333C560.975 134.312 564.417 123.981 568.547 116.404C570.611 112.96 571.988 109.516 573.365 107.45C574.741 105.383 575.43 104.006 575.43 104.006L574.053 107.45C573.365 109.516 571.988 112.96 570.612 117.093Z" fill="#3F3F3F"/>
<path d="M748.195 616.461C742 619.216 735.117 621.283 728.234 624.038C720.662 626.104 713.091 628.859 704.831 631.615C696.571 633.681 687.623 635.747 678.675 638.502C673.857 639.88 669.727 640.569 664.909 641.946C660.091 642.635 655.273 644.013 650.455 644.701C640.818 646.768 630.494 648.834 619.481 650.212C609.156 651.589 598.143 653.656 587.13 655.033C581.623 655.722 576.117 656.411 569.922 657.1C564.416 657.1 558.221 658.477 552.714 658.477C529.312 661.232 505.221 661.921 481.13 662.61C474.935 662.61 468.74 662.61 462.545 662.61C456.351 662.61 450.156 662.61 443.961 662.61C431.571 662.61 419.182 662.61 406.792 662.61H388.208C382.013 662.61 375.818 661.921 369.623 661.232C357.234 661.232 344.844 659.855 333.143 659.166C320.753 658.477 309.052 657.788 296.662 656.411C284.961 655.033 273.26 654.344 261.558 652.967C249.857 651.589 238.844 650.212 227.831 648.834C225.078 648.834 222.325 648.834 219.571 648.145C216.818 648.145 214.065 647.457 211.312 646.768C205.805 646.079 200.299 645.39 195.481 644.013C174.143 640.569 154.87 637.125 136.286 634.37C117.701 631.615 101.182 627.482 86.7273 624.038C72.2727 620.594 59.1948 617.839 48.8701 615.084C38.5455 612.329 30.2857 610.262 24.7792 608.885C19.2727 607.507 16.5195 606.818 16.5195 606.818C16.5195 606.818 19.9611 606.818 25.4675 606.818C30.974 606.818 39.9221 606.818 50.9351 607.507C61.9481 607.507 75.026 608.196 90.1688 609.573C97.7403 609.573 105.312 610.262 114.26 610.951C118.39 610.951 122.519 610.951 127.338 611.64H141.104C159.688 613.017 179.649 614.395 200.299 615.084C217.506 616.461 235.403 617.15 254.675 617.839C254.675 617.15 253.987 616.461 253.299 615.084C253.299 613.706 253.299 612.329 253.299 610.951C253.299 607.507 259.494 567.558 237.468 543.45C206.494 509.011 209.247 470.439 212 454.597L8.25977 313.397C3.44153 309.953 2.7533 303.754 5.50653 298.932C7.57147 295.488 11.013 294.111 14.4545 294.111C15.8312 294.111 17.8961 294.111 19.2728 295.488L34.4156 305.131C35.1039 303.065 36.4805 300.998 39.2338 300.31L399.909 130.869C406.792 95.7409 420.558 68.1896 421.247 66.812C421.247 65.4344 422.623 64.7457 424 63.3681L463.922 33.7504C463.922 30.3065 464.61 26.1738 465.299 23.4186C467.364 8.2654 471.493 0 471.493 0C471.493 0 473.558 8.95419 472.87 24.1074C472.87 24.7962 472.87 26.1738 472.87 27.5513L503.156 5.51027C505.221 4.1327 507.286 3.44392 509.351 3.44392C511.416 3.44392 513.481 4.1327 514.857 5.51027C518.299 8.2654 518.987 13.0869 516.922 17.2196C497.649 53.0363 519.675 111.583 519.675 112.272C521.052 115.027 519.675 118.471 518.299 121.226C517.61 122.603 516.234 123.292 515.545 123.981C511.416 140.512 497.649 205.258 525.87 278.957C527.247 281.712 526.558 285.156 524.494 287.912C523.805 289.289 522.429 289.978 521.052 290.667C519.675 312.708 516.922 400.183 532.065 453.908C529.312 418.78 528.623 368.499 544.455 336.126C545.143 334.06 547.208 331.994 549.273 331.305L579.558 319.596C565.792 322.351 553.403 326.483 542.39 331.994C541.013 332.682 539.636 333.371 537.571 332.682C536.195 332.682 534.13 332.682 532.753 331.305C530 329.239 528.623 326.483 528.623 323.04C528.623 319.596 530 239.008 544.455 194.926C532.753 140.512 564.416 95.7409 565.792 93.6746C567.169 92.297 568.545 90.9194 569.922 90.2307L631.182 68.1896C631.87 62.6793 633.247 57.8578 633.935 55.1027C635.312 51.6588 636 49.5924 636 49.5924C636 49.5924 636.688 51.6588 637.377 55.7915C637.377 58.5466 637.377 61.9905 637.377 66.1232L660.779 57.8578C662.156 57.8578 663.532 57.8578 664.221 57.8578C666.286 57.8578 668.351 58.5466 670.416 60.613C673.169 62.6793 673.857 66.812 673.169 70.2559C666.286 95.0521 680.052 130.18 684.182 140.512C685.558 140.512 686.935 141.201 687.623 142.578C689.688 143.956 690.377 146.711 691.065 149.466C691.065 150.155 693.13 221.1 706.208 277.58C708.961 280.335 709.649 283.779 708.961 287.223C710.338 292.733 711.714 297.555 713.091 302.376C713.779 305.131 713.091 308.575 711.714 311.33C709.649 313.397 706.896 314.774 704.143 314.774C704.143 314.774 704.143 314.774 703.455 314.774C696.571 354.035 692.442 427.046 738.558 483.526C740.623 486.281 741.312 490.414 739.935 493.169C738.558 496.613 735.117 498.679 731.675 498.679C726.169 498.679 719.974 498.679 713.091 498.679L716.532 506.945C719.974 506.256 722.727 505.567 726.169 504.19C729.61 503.501 733.74 502.123 737.87 501.434C740.623 500.746 744.065 500.057 746.818 500.746C756.455 500.746 764.026 507.633 767.468 517.965C772.974 537.251 762.649 573.068 748.883 582.711C742 587.532 736.494 588.91 732.364 590.288C729.61 590.976 727.545 591.665 726.169 593.043C730.987 595.109 737.87 599.931 740.623 608.196C742 608.196 743.377 608.196 745.442 607.507C751.636 606.13 757.831 605.441 762.649 604.063C772.974 601.308 781.234 599.242 786.74 597.864C789.494 597.175 791.558 596.487 792.935 595.798H795C795 595.109 792.247 596.487 787.429 599.93C782.61 602.686 775.039 606.818 764.714 611.64C759.896 613.706 754.39 616.461 748.195 618.528V616.461ZM25.4675 312.708C19.2727 309.264 15.8312 307.197 15.8312 307.197L24.7792 313.397C30.9741 317.529 39.2338 323.728 49.5584 330.616C59.8831 337.504 71.5845 345.769 84.6624 354.035C97.7403 362.3 111.506 371.254 125.273 380.897C139.039 389.852 152.805 398.806 165.883 407.071C178.961 415.336 191.351 422.913 201.675 429.112C212 436 220.948 440.822 227.143 444.954C233.338 448.398 236.779 450.464 236.779 450.464C236.779 450.464 233.338 448.398 227.831 444.265C221.636 440.133 213.377 433.934 203.052 427.046C192.727 420.158 181.026 411.893 167.948 403.627C154.87 395.362 141.104 386.408 127.338 376.765C113.571 367.81 99.8052 358.856 86.7273 350.591C73.6494 342.325 61.2598 334.749 50.9351 328.55C40.6104 321.662 31.6624 316.84 25.4675 312.708ZM384.078 474.572C382.013 475.949 380.636 478.016 379.26 480.082C379.26 480.771 377.883 482.148 377.195 482.837C380.636 483.526 384.766 484.215 388.208 485.592L383.39 475.261L384.078 474.572ZM394.403 486.281C400.597 487.659 406.792 489.036 412.987 490.414C413.675 483.526 414.364 476.638 415.052 469.062V466.995C405.416 466.995 395.091 468.373 388.208 472.506L394.403 486.97V486.281ZM380.636 465.618L359.299 416.714C358.61 416.714 357.922 416.714 357.234 416.714C363.429 448.398 373.065 475.949 373.065 475.949C375.13 471.817 377.883 468.373 382.013 465.618H380.636ZM362.74 478.705C360.675 473.194 351.727 446.332 346.221 415.337L328.325 413.27L326.26 469.75C337.273 472.506 349.662 475.949 362.74 478.705ZM357.234 407.071C359.987 387.096 364.117 365.055 369.623 342.325C366.87 349.902 364.805 357.479 362.74 364.367C359.299 374.698 356.545 383.652 355.169 389.852C353.104 396.051 352.416 399.494 352.416 399.494C352.416 399.494 352.416 396.051 353.792 389.163C353.792 385.719 354.481 382.275 355.169 377.453C355.857 373.321 356.545 367.81 357.922 362.3C359.987 351.28 362.74 338.882 366.182 325.795C368.247 318.907 369.623 312.019 371.688 305.131C373.753 298.243 375.818 291.355 377.883 283.779C382.701 270.003 386.831 255.539 391.649 243.141C396.468 230.054 401.286 218.344 405.416 208.013C413.675 187.349 420.558 174.262 420.558 174.262L225.078 391.229L357.234 406.382V407.071ZM404.727 172.196C403.351 175.64 401.974 179.084 400.597 182.528L412.987 168.752C415.052 166.686 417.805 165.308 420.558 165.997C421.935 165.997 423.312 165.997 424.688 167.374C425.377 167.374 426.065 168.752 426.753 169.441L436.39 155.665L404.039 172.885L404.727 172.196ZM449.468 137.068L452.909 132.246C441.208 136.379 432.948 143.267 426.753 149.466L448.779 137.068H449.468ZM218.195 385.03L250.545 349.213L57.8182 319.596L201.675 410.515L216.818 393.295C216.13 390.54 216.818 387.096 218.883 384.341L218.195 385.03ZM306.299 409.826L293.221 459.419C301.481 461.485 311.117 464.24 321.442 466.995L323.507 411.204L306.299 409.137V409.826ZM301.481 409.826L282.896 407.76L256.74 446.332L266.377 452.531C269.13 453.22 276.701 455.975 288.403 458.73L301.481 409.826ZM278.078 407.071L223.701 400.872C221.636 400.872 219.571 399.494 218.195 398.117L204.429 413.27L252.61 443.577L278.078 407.071ZM41.2987 308.575L171.39 328.55C154.182 325.106 136.974 321.662 119.766 318.218C101.182 314.085 82.5974 309.953 64.013 305.82C82.5974 307.886 101.182 311.33 120.455 314.085C139.039 316.84 157.623 319.596 176.208 323.04C194.792 325.795 213.377 329.239 231.961 332.682L260.87 337.504L335.896 254.161C337.961 250.717 340.026 247.962 341.403 244.518C351.039 227.987 361.364 211.457 371.688 194.926C382.013 178.395 391.649 161.864 402.662 146.022C393.714 163.242 384.766 180.461 375.818 197.681C371 207.324 365.494 216.278 360.675 225.921L415.74 135.002L41.2987 310.641V308.575ZM508.662 13.0869L429.507 71.6335C429.507 71.6335 417.117 95.0521 410.234 126.047H411.61C412.299 125.359 412.987 124.67 414.364 124.67C414.364 123.981 414.364 122.603 414.364 121.915C415.052 116.404 417.117 109.517 419.182 102.629C421.935 95.7409 424.688 88.8531 427.442 84.0316C430.195 79.2101 432.26 76.455 432.26 76.455C432.26 76.455 431.571 79.8989 430.195 85.4092C428.818 90.9194 426.753 97.8073 424 104.695C422.623 108.139 421.935 111.583 420.558 115.027C419.182 118.471 418.493 121.226 417.117 123.981C417.117 124.67 417.117 125.359 416.429 126.047C418.494 126.047 421.247 127.425 422.623 128.803C425.377 131.558 426.065 136.379 424 139.823L421.935 143.267C434.325 130.869 456.351 117.782 491.455 116.404L503.844 109.517C505.221 108.828 507.286 108.139 508.662 108.139C505.909 99.8736 502.468 86.7867 501.091 71.6335C501.091 73.0111 501.091 74.3886 501.091 75.7662C501.091 81.2765 501.091 86.0979 501.091 90.9194C501.091 99.8736 501.091 105.384 501.091 105.384C501.091 105.384 498.338 99.8736 495.584 90.9194C494.208 86.7867 493.519 81.2765 492.831 75.7662C492.831 73.0111 492.831 70.2559 492.831 66.812C492.831 64.0569 492.831 60.613 492.831 57.8578C492.831 55.1027 492.831 51.6588 494.208 48.9036C494.208 46.1485 495.584 43.3934 496.273 40.6382C496.273 37.8831 497.649 35.128 499.026 33.0616C499.714 30.3065 501.091 28.2401 501.779 26.1738C502.468 24.1074 503.844 22.0411 504.532 20.6635C505.221 19.2859 506.597 17.9084 507.286 16.5308C508.662 14.4645 510.039 13.0869 510.039 13.0869H508.662ZM465.299 129.491L469.429 127.425C468.052 127.425 466.675 127.425 465.299 128.114V129.491ZM505.909 243.829C505.909 245.207 505.909 246.585 505.909 248.651C505.909 252.095 505.909 255.539 505.909 258.983C505.909 261.738 505.909 264.493 505.909 266.559C505.909 270.692 505.909 273.447 505.909 273.447C505.909 273.447 505.221 271.381 503.844 267.248C502.468 263.115 500.403 256.916 499.026 250.028C498.338 246.585 496.961 242.452 496.961 238.319C496.961 234.186 495.584 229.365 494.896 225.232C494.896 220.411 494.208 215.589 493.52 210.768C493.52 205.946 493.52 201.125 493.52 195.615C493.52 185.972 493.52 175.64 494.896 166.686C494.896 161.864 496.273 157.731 496.961 153.599C496.961 149.466 498.338 145.333 499.026 141.889C500.403 134.313 502.468 128.803 503.844 124.67C505.221 120.537 506.597 118.471 506.597 118.471L444.649 151.532L427.442 174.951C427.442 176.329 427.442 177.706 427.442 179.773C427.442 180.461 404.039 245.207 385.455 314.774C385.455 318.907 385.455 320.973 385.455 320.973C411.61 281.024 516.234 283.779 516.234 283.779C511.416 270.692 507.286 258.294 504.532 245.896L505.909 243.829ZM408.169 311.33L432.948 302.376V300.998C424 303.754 415.052 307.197 408.169 311.33ZM513.481 391.229C513.481 398.117 513.481 405.694 514.169 411.893C514.169 417.403 514.857 422.224 515.545 427.735C515.545 432.556 516.922 437.378 516.922 441.51C516.922 445.643 518.299 449.776 518.987 453.22C518.987 455.286 518.987 456.664 519.675 458.041C519.675 459.419 519.675 460.796 520.364 462.174C521.74 466.995 521.74 470.439 521.74 470.439C521.74 470.439 520.364 467.684 518.299 462.863C518.299 461.485 516.922 460.107 516.234 458.73C516.234 457.352 514.857 455.975 514.857 453.908C513.481 450.464 512.104 446.332 511.416 442.199C510.727 438.066 509.351 433.245 507.974 428.423C507.286 423.602 505.909 418.092 505.909 412.581C505.909 407.071 504.532 401.561 504.532 395.362C504.532 389.852 504.532 383.652 503.844 377.453C503.844 371.254 503.844 365.744 503.844 359.545C503.844 354.035 503.844 347.836 504.532 342.325C504.532 336.815 505.221 331.305 505.909 326.483C505.909 321.662 507.286 316.84 507.286 312.019C508.662 302.376 510.039 294.799 510.727 289.978C505.221 289.978 498.338 289.978 490.766 289.978L380.636 329.239C373.753 356.101 368.247 382.964 364.805 407.071C364.805 409.137 363.429 411.204 361.364 413.27L382.701 462.174C393.714 456.664 408.857 455.286 425.377 456.664C472.182 459.419 530.688 479.393 530.688 479.393C519.675 458.041 514.169 424.291 511.416 390.54L513.481 391.229ZM462.545 471.128C454.286 469.75 445.338 468.373 437.078 467.684C437.078 468.373 437.078 469.75 437.078 470.439C436.39 478.705 435.701 486.97 435.013 493.858C445.338 495.924 456.351 497.991 467.364 500.057L462.545 471.128ZM472.182 500.746C474.935 500.746 477.688 501.434 480.442 502.123L475.623 473.883C472.87 473.883 470.117 472.506 467.364 471.817L472.182 500.746ZM480.442 474.572L485.26 502.812C488.013 502.812 490.766 503.501 493.52 504.19L488.701 477.327C485.948 476.638 483.195 475.949 479.753 475.261L480.442 474.572ZM494.208 478.016L499.026 504.878C501.779 504.878 504.532 505.567 507.286 506.256L503.156 480.771C500.403 480.082 497.649 479.393 494.208 478.705V478.016ZM507.974 481.46L512.104 506.256C514.857 506.256 517.61 506.945 520.364 507.633L516.234 484.215C513.481 483.526 510.727 482.837 507.286 481.46H507.974ZM537.571 493.858C537.571 493.858 537.571 491.103 536.883 487.659C535.507 487.659 534.13 489.036 532.065 488.348C531.377 488.348 530.688 488.348 529.312 488.348C529.312 488.348 526.558 487.659 521.74 485.592L525.87 507.633C530.688 507.633 536.195 509.011 541.013 509.011C556.156 510.389 569.234 511.766 580.935 513.144C580.935 508.322 582.312 502.812 582.312 497.991C567.169 498.679 555.468 500.057 549.273 501.434C548.584 501.434 547.896 501.434 546.52 501.434C545.143 501.434 543.078 501.434 541.701 500.057C539.636 498.679 538.26 496.613 537.571 493.858ZM664.909 106.761C664.909 108.139 664.909 109.517 664.909 110.205C664.909 112.272 664.909 115.027 665.597 117.093C666.286 121.226 666.974 125.359 667.662 128.803C669.039 135.69 669.727 140.512 669.727 140.512C669.727 140.512 666.286 136.379 663.532 130.18C662.156 126.736 660.779 122.603 659.403 118.471C659.403 116.404 658.026 113.649 658.026 111.583C658.026 109.517 657.338 106.761 656.649 104.006C656.649 99.1848 656.649 94.3633 656.649 89.5419C656.649 87.4755 656.649 84.7204 657.338 82.654C657.338 80.5877 658.026 78.5213 658.714 77.1438C658.714 75.0774 660.091 73.6998 660.091 72.3223C660.091 70.9447 661.468 69.5671 661.468 68.8784C662.156 66.812 662.844 66.1232 662.844 66.1232L571.299 99.8736C571.299 99.8736 538.26 146.022 552.714 199.747C552.714 199.747 581.623 139.823 654.584 143.267C661.468 143.267 668.351 144.645 675.922 146.022C675.922 146.022 667.662 128.114 662.844 106.761H664.909ZM704.831 303.754C694.506 274.136 689 234.875 686.247 203.88V208.701C686.247 213.523 686.935 217.656 687.623 222.477C687.623 227.299 688.312 232.12 689 236.253C689 241.074 689.688 245.207 690.377 250.028C690.377 254.161 691.065 258.294 691.753 262.427C691.753 266.559 692.442 270.003 693.13 273.447C693.13 276.891 693.818 280.335 694.506 283.09C694.506 285.845 695.195 288.6 695.883 290.667C695.883 294.799 696.571 296.866 696.571 296.866C696.571 296.866 695.195 294.799 693.818 290.667C693.13 288.6 691.753 286.534 691.065 283.779C690.377 281.024 689 278.269 687.623 274.825C685.558 267.937 683.494 259.671 682.117 250.717C681.429 246.585 680.74 241.763 680.052 236.942C680.052 232.12 679.364 227.299 678.675 222.477C678.675 212.834 677.987 203.191 677.987 194.237C677.987 185.283 677.987 177.017 679.364 170.13C679.364 163.242 680.74 157.731 681.429 153.599C680.052 153.599 678.675 154.288 677.987 153.599C677.987 153.599 677.299 153.599 676.61 153.599C671.104 152.221 665.597 151.532 660.091 151.532C635.312 159.109 601.584 172.196 579.558 181.15C569.234 192.171 564.416 201.814 564.416 201.814C563.039 205.258 559.597 207.324 555.468 207.324C554.091 207.324 552.714 207.324 552.026 205.946C541.013 250.028 539.636 321.662 539.636 321.662C586.442 298.243 664.909 299.621 694.506 301.687C702.078 301.687 706.896 302.376 706.896 302.376L704.831 303.754ZM730.987 487.659C713.091 465.618 702.078 440.822 695.883 416.714C695.883 418.092 696.571 420.158 697.26 421.536C697.26 424.291 698.636 427.046 699.325 429.801C699.325 432.556 700.701 435.311 701.39 438.066C702.766 443.577 704.143 448.398 706.208 452.531C708.273 456.664 709.649 460.796 711.026 464.929C713.091 468.373 714.468 471.817 715.844 473.883C718.597 478.705 719.974 482.149 719.974 482.149C719.974 482.149 717.909 479.393 714.468 475.261C713.091 473.194 710.338 470.439 708.273 466.995C706.208 463.551 704.143 459.419 702.078 455.286C699.325 451.153 697.948 445.643 695.883 440.822C695.195 438.066 693.818 435.311 693.13 432.556C692.442 429.801 691.753 427.046 690.377 423.602C688.312 417.403 687.623 411.204 686.247 405.005C684.87 398.806 684.87 391.918 684.182 385.719C684.182 378.831 684.182 372.632 684.182 365.744C684.182 359.545 684.182 352.657 685.558 346.458C685.558 340.259 686.935 334.749 688.312 329.239C689 323.728 690.377 318.218 691.753 314.085C691.753 314.085 691.753 313.397 691.753 312.708C675.922 312.019 649.766 311.33 622.234 313.397L554.091 339.57C530 390.54 547.896 492.48 547.896 492.48C580.247 485.592 732.364 487.659 732.364 487.659H730.987ZM693.13 496.613C690.377 496.613 686.935 496.613 684.182 496.613L690.377 511.077C693.13 511.077 695.883 509.7 698.636 509.011L693.13 496.613ZM703.455 508.322C706.208 508.322 708.961 506.945 711.714 506.256L707.584 496.613C704.831 496.613 701.39 496.613 698.636 496.613L703.455 508.322ZM679.364 496.613C676.61 496.613 673.169 496.613 670.416 496.613L677.987 513.833C680.74 513.833 683.494 513.144 686.247 512.455L679.364 497.302V496.613ZM665.597 496.613C662.844 496.613 659.403 496.613 656.649 496.613L664.909 515.21C667.662 515.21 670.416 515.21 673.169 513.833L665.597 495.924V496.613ZM651.831 496.613C635.312 496.613 618.792 496.613 603.649 497.302C603.649 503.501 602.273 509.7 602.273 515.21C605.026 515.21 607.779 515.21 610.532 515.21C631.182 516.588 646.325 515.899 660.091 515.21L651.831 495.924V496.613ZM719.974 513.833C706.896 516.588 689 521.409 666.286 523.476C644.26 525.542 617.416 524.853 589.883 522.098C576.117 520.72 561.662 519.343 546.52 517.965C538.948 517.276 532.065 516.588 524.494 515.21C516.922 514.521 509.351 513.144 502.468 512.455C487.325 510.389 472.87 508.322 458.416 505.567C443.961 502.812 429.507 500.746 415.74 497.991C401.974 495.235 388.896 492.48 375.818 489.725C363.429 486.97 351.039 484.215 340.714 481.46C296.662 471.128 267.753 462.863 267.753 462.863C267.753 462.863 274.636 465.618 287.714 469.062C300.104 473.194 318 478.016 340.026 484.215C351.039 486.97 362.74 489.725 375.13 493.169C387.52 495.924 401.286 499.368 415.052 502.123C428.818 504.878 443.273 507.634 457.727 510.389C472.182 513.144 487.325 515.21 501.779 517.276C509.351 518.654 516.922 519.343 523.805 520.032C531.377 520.72 538.948 522.098 545.831 522.098C560.286 523.476 574.74 524.853 589.195 525.542C602.961 526.919 616.727 526.919 629.805 526.919C642.883 526.919 655.273 526.919 666.286 524.853C689 522.098 706.896 516.588 719.286 513.144C731.675 509.7 739.247 507.633 739.247 507.633L719.286 512.455L719.974 513.833ZM746.13 515.899C744.065 516.588 742 517.965 739.247 519.343C736.494 520.72 733.052 522.098 729.61 523.476C722.039 526.231 713.091 529.675 702.078 532.43C691.065 535.185 678.675 537.251 665.597 539.318C651.831 540.695 637.377 542.073 621.545 542.761C605.714 543.45 589.195 542.761 571.987 542.761C554.779 542.073 536.883 540.695 519.675 538.629C501.779 536.562 483.883 533.807 465.987 531.052C393.714 519.343 323.507 499.368 272.571 480.082C259.494 475.261 248.481 470.439 238.156 466.306C231.961 463.551 225.766 460.796 220.948 458.73C220.26 464.24 219.571 472.506 220.26 482.149C223.701 483.526 226.455 484.904 229.896 486.281C240.221 490.414 252.61 495.235 265.688 499.368C278.766 504.19 293.221 508.322 308.364 512.455C323.507 516.588 340.026 520.72 357.234 524.853C374.442 528.986 391.649 532.43 409.545 535.874C427.442 539.318 446.026 542.073 463.922 544.139C482.507 546.205 500.403 548.272 518.987 549.649C536.883 551.027 554.779 551.716 572.675 551.716C589.883 551.716 607.091 551.716 622.922 550.338C638.753 548.961 653.896 547.583 667.662 544.828C681.429 542.073 693.818 539.318 704.831 536.562C715.844 533.119 724.792 529.675 732.364 526.919C735.805 524.853 739.247 523.476 742 522.098C744.753 520.72 746.818 519.343 748.883 517.965C752.325 515.21 754.39 513.833 754.39 513.833C754.39 513.833 752.325 514.521 748.195 516.588L746.13 515.899ZM749.571 545.517C750.26 544.828 750.948 544.139 750.948 544.139C750.948 544.139 748.883 544.139 744.753 546.205C742.688 546.894 740.623 548.272 737.87 549.649C735.117 551.027 731.675 552.404 728.234 553.093C724.792 554.471 720.662 555.848 715.844 556.537C711.026 557.915 706.208 559.292 701.39 559.981C698.636 559.981 695.883 561.359 693.13 561.359C690.377 561.359 687.623 562.047 684.182 562.736C677.987 564.114 671.792 564.803 665.597 565.491C658.714 566.18 651.831 566.869 644.948 567.558C641.507 567.558 638.065 567.558 633.935 568.246C630.494 568.246 626.364 568.246 622.922 568.246C615.351 568.246 607.779 568.246 599.519 568.246C591.26 568.246 583.688 568.246 574.74 568.246C566.481 568.246 558.221 567.558 549.273 566.869C541.013 566.869 532.065 565.491 523.805 564.803C514.857 564.803 506.597 563.425 497.649 562.047C488.701 561.359 479.753 559.981 471.493 559.292C453.597 557.226 436.39 554.471 419.182 551.716C410.234 550.338 401.974 548.961 393.714 547.583C385.455 546.205 377.195 544.828 368.935 542.761C360.675 540.695 353.104 539.318 344.844 537.94C337.273 535.874 329.701 534.496 322.13 532.43C314.558 530.363 307.675 528.297 300.792 526.919C293.909 524.853 287.714 522.787 280.831 521.409C274.636 519.343 268.442 517.276 262.935 515.21C257.429 513.144 251.922 511.077 247.104 509.7C242.286 507.634 237.468 505.567 233.338 504.19C229.208 502.123 225.766 500.746 222.325 499.368C224.39 506.945 227.831 515.21 233.338 522.787C236.091 523.476 238.844 524.853 241.597 525.542C247.104 527.608 252.61 528.986 258.117 531.052C263.623 532.43 269.13 534.496 275.325 536.562C274.636 537.94 273.948 540.006 274.636 541.384C274.636 544.139 277.39 546.894 280.143 547.583C277.39 548.961 275.325 549.649 274.636 550.338C273.948 551.027 274.636 552.404 274.636 553.093C274.636 553.093 274.636 554.471 276.013 555.16C276.701 555.16 279.455 555.16 282.208 555.16C282.208 555.848 282.208 556.537 282.208 557.226C282.208 558.604 282.896 559.981 282.896 561.359C282.896 561.359 282.896 562.047 282.896 562.736C282.896 565.491 284.273 570.313 282.896 572.379C280.831 572.379 278.078 571.002 276.013 569.624H277.39C277.39 568.935 277.39 568.246 277.39 567.558C277.39 567.558 277.39 566.869 276.013 566.869C272.571 566.869 269.13 563.425 269.13 563.425C269.13 563.425 268.442 563.425 267.753 563.425C267.753 563.425 267.065 563.425 267.065 564.803C267.065 571.002 270.507 575.823 270.507 575.823C270.507 575.823 271.195 575.823 271.883 575.823C271.883 575.823 272.571 575.823 272.571 575.134V573.757C277.39 577.889 283.584 579.956 285.649 579.956C285.649 579.956 285.649 579.956 287.026 580.645C276.701 578.578 267.753 577.201 260.182 575.823C262.935 595.109 260.182 611.64 260.182 611.64C260.182 611.64 260.182 611.64 262.247 611.64C273.948 611.64 330.39 613.706 394.403 615.084C364.805 613.017 335.896 610.262 313.87 608.885C300.792 608.196 289.779 607.507 282.208 606.818C274.636 606.13 270.507 605.441 270.507 605.441C270.507 605.441 274.636 605.441 282.896 605.441C287.026 605.441 291.156 605.441 296.662 605.441C302.169 605.441 308.364 605.441 314.558 605.441C340.714 606.818 375.818 608.196 410.922 610.262C446.026 612.329 481.13 613.706 507.286 615.773C519.675 616.461 530.688 617.15 538.26 617.839C554.091 617.839 568.545 617.839 579.558 617.839C655.273 617.839 693.13 611.64 707.584 596.487H706.208C705.519 597.175 704.143 597.864 702.766 598.553C699.325 599.931 695.195 601.997 689 604.063C676.61 608.196 658.714 611.64 636.688 613.017C592.636 616.461 532.753 613.017 473.558 606.13C414.364 599.931 355.169 590.976 311.117 584.089C304.234 582.711 298.039 582.022 292.532 580.645C292.532 579.267 293.221 577.889 293.909 577.889C295.974 577.201 300.792 573.068 303.545 567.558H304.234C304.234 568.935 304.922 568.935 305.61 568.935C305.61 568.935 306.299 568.935 306.299 568.246C306.299 568.246 307.675 562.736 305.61 556.537C305.61 556.537 305.61 555.848 304.234 555.848C304.234 555.848 303.545 555.848 303.545 556.537C303.545 556.537 301.481 560.67 298.039 562.047C298.039 562.047 297.351 562.736 297.351 563.425C297.351 563.425 297.351 564.114 298.039 564.803H299.416C298.039 566.869 295.974 569.624 293.909 570.313C293.909 570.313 293.909 570.313 293.221 570.313C291.844 568.935 290.468 564.114 290.468 561.359V559.981C290.468 558.604 290.468 557.226 290.468 555.848C290.468 555.848 290.468 554.471 290.468 553.782C293.221 553.093 295.974 552.404 296.662 551.716C297.351 551.027 296.662 549.649 296.662 548.961C296.662 548.961 296.662 547.583 295.286 546.894C294.597 546.894 291.844 546.894 289.091 546.894C290.468 544.828 291.844 542.761 291.844 540.695C293.909 540.695 295.974 542.073 298.039 542.761C304.922 544.139 312.494 546.205 320.065 548.272C327.636 549.649 335.208 551.716 343.468 553.093C351.727 554.471 359.299 555.848 367.558 557.915C375.818 559.292 384.078 560.67 393.026 562.047C401.286 563.425 410.234 564.803 419.182 565.491C436.39 568.246 454.286 569.624 472.182 571.69C481.13 572.379 490.078 573.068 499.026 573.757C507.974 573.757 516.922 575.134 525.182 575.823C534.13 575.823 542.39 576.512 551.338 577.201C560.286 577.201 568.545 577.201 576.805 577.201C585.065 577.201 593.325 577.201 601.584 577.201C609.844 577.201 617.416 577.201 624.987 575.823C629.117 575.823 632.558 575.823 636 575.134C639.442 575.134 643.571 574.446 647.013 573.757C653.896 573.068 661.468 572.379 667.662 571.002C674.545 570.313 680.74 568.935 686.935 567.558L695.883 566.18C698.636 566.18 701.39 564.803 704.143 564.114C709.649 562.736 714.468 561.359 718.597 559.981C723.416 558.604 726.857 557.226 730.987 555.848C738.558 553.093 744.065 550.338 747.506 548.272C749.571 546.894 750.26 546.205 750.948 545.517H749.571ZM732.364 578.578C733.74 578.578 734.429 577.201 735.805 576.512C736.494 576.512 737.87 575.134 738.558 574.446C739.935 573.068 741.312 571.69 742.688 571.002C744.065 569.624 744.065 568.935 744.753 568.246C744.753 567.558 744.753 566.869 744.753 566.869C744.753 566.869 744.753 566.869 744.753 567.558C744.753 567.558 743.377 568.935 742.688 569.624C741.312 570.313 739.935 571.69 738.558 572.379C736.494 573.068 734.429 574.445 732.364 575.134C727.545 576.512 722.039 578.578 715.844 579.956C713.091 580.645 709.649 581.333 706.208 582.022C702.766 582.022 700.013 583.4 696.571 584.089C693.13 584.089 690.377 585.466 686.935 585.466C683.494 585.466 680.74 586.155 677.299 586.844C671.104 587.532 665.597 588.91 660.091 589.599C655.273 589.599 651.143 590.976 648.39 591.665C645.636 591.665 643.571 592.354 643.571 592.354C643.571 592.354 644.948 592.354 648.39 592.354C651.143 592.354 655.273 592.354 660.779 592.354C663.532 592.354 666.286 592.354 669.039 592.354C671.792 592.354 675.234 592.354 677.987 592.354C681.429 592.354 684.182 592.354 687.623 590.976C691.065 590.976 694.507 590.288 697.26 589.599C704.143 588.221 710.338 586.844 716.532 585.466C719.286 584.777 722.727 583.4 725.481 582.711C728.234 581.333 730.987 580.645 733.052 579.267L732.364 578.578Z" fill="#3F3F3F"/>
</g>
<defs>
<clipPath id="clip0_37_2654">
<rect width="795" height="872" fill="white" transform="matrix(-1 0 0 1 795 0)"/>
</clipPath>
</defs>
</svg>
