<svg width="24" height="24" viewBox="0 0 24 24" fill="none" xmlns="http://www.w3.org/2000/svg">
<g id="Iconly/Bulk/Category">
<g id="Category">
<g id="Money/bank-transfer">
<path id="Vector (Stroke)" fill-rule="evenodd" clip-rule="evenodd" d="M3 5.75C2.86193 5.75 2.75 5.86193 2.75 6V18C2.75 18.1381 2.86193 18.25 3 18.25H21C21.1381 18.25 21.25 18.1381 21.25 18V6C21.25 5.86193 21.1381 5.75 21 5.75H3ZM1.25 6C1.25 5.0335 2.0335 4.25 3 4.25H21C21.9665 4.25 22.75 5.0335 22.75 6V18C22.75 18.9665 21.9665 19.75 21 19.75H3C2.0335 19.75 1.25 18.9665 1.25 18V6Z" fill="white"/>
<path id="Vector (Stroke)_2" fill-rule="evenodd" clip-rule="evenodd" d="M1.25 10C1.25 9.58579 1.58579 9.25 2 9.25H22C22.4142 9.25 22.75 9.58579 22.75 10C22.75 10.4142 22.4142 10.75 22 10.75H2C1.58579 10.75 1.25 10.4142 1.25 10Z" fill="white"/>
<path id="Vector (Stroke)_3" fill-rule="evenodd" clip-rule="evenodd" d="M2 7.75C2.41421 7.75 2.75 8.08579 2.75 8.5V11.5C2.75 11.9142 2.41421 12.25 2 12.25C1.58579 12.25 1.25 11.9142 1.25 11.5V8.5C1.25 8.08579 1.58579 7.75 2 7.75Z" fill="white"/>
<path id="Vector (Stroke)_4" fill-rule="evenodd" clip-rule="evenodd" d="M22 7.75C22.4142 7.75 22.75 8.08579 22.75 8.5V11.5C22.75 11.9142 22.4142 12.25 22 12.25C21.5858 12.25 21.25 11.9142 21.25 11.5V8.5C21.25 8.08579 21.5858 7.75 22 7.75Z" fill="white"/>
<path id="Vector (Stroke)_5" fill-rule="evenodd" clip-rule="evenodd" d="M13.75 14.5C13.75 14.0858 14.0858 13.75 14.5 13.75H18.5C18.9142 13.75 19.25 14.0858 19.25 14.5C19.25 14.9142 18.9142 15.25 18.5 15.25H14.5C14.0858 15.25 13.75 14.9142 13.75 14.5Z" fill="white"/>
</g>
</g>
</g>
</svg>
