<svg width="24" height="24" viewBox="0 0 24 24" fill="none" xmlns="http://www.w3.org/2000/svg">
<g id="Iconly/Bulk/Heart">
<g id="Vector">
<path fill-rule="evenodd" clip-rule="evenodd" d="M22 2.58301V18.7057L15.4032 21.0512L8.61074 19.0386L2 20.8015V5.29412L8.59684 2.94858L15.3468 4.94858L22 2.58301ZM8.65316 5.05121L4 6.70567V18.1983L8.63926 16.9611L15.3468 18.9486L20 17.2941V5.41678L15.4032 7.05121L8.65316 5.05121Z" fill="white"/>
<path d="M9.07931 12.5861L9.06644 12.5819L5.83086 11.5001L5.00006 13.9851L8.24103 15.0687L8.24848 15.0712L8.25592 15.0737C8.25859 15.0745 8.26125 15.0754 8.26391 15.0764C8.26783 15.0777 8.27175 15.0791 8.27572 15.0803C8.86537 15.2618 9.55579 14.9749 10.224 14.3502C10.0659 13.4493 9.6868 12.8049 9.10652 12.5953C9.10378 12.5943 9.10102 12.5934 9.09826 12.5925L9.09215 12.5905L9.07931 12.5861Z" fill="white"/>
<path d="M19 9.5C19 10.3284 18.3284 11 17.5 11C16.6716 11 16 10.3284 16 9.5C16 8.67157 16.6716 8 17.5 8C18.3284 8 19 8.67157 19 9.5ZM17.0026 9.5C17.0026 9.77469 17.2253 9.99736 17.5 9.99736C17.7747 9.99736 17.9974 9.77469 17.9974 9.5C17.9974 9.22531 17.7747 9.00264 17.5 9.00264C17.2253 9.00264 17.0026 9.22531 17.0026 9.5Z" fill="white"/>
<path fill-rule="evenodd" clip-rule="evenodd" d="M15.8008 11.3447L15.0949 11.8938L14.517 11.1508L15.2229 10.6017L15.8008 11.3447ZM14.3889 12.4428L12.977 13.541L12.3991 12.798L13.811 11.6998L14.3889 12.4428ZM12.2711 14.09L11.5651 14.6391L10.9873 13.8961L11.6932 13.347L12.2711 14.09Z" fill="white"/>
<path d="M8 5H9V10L8 9.58303V5Z" fill="white"/>
<path d="M15 16L16 15V19.5H15V16Z" fill="white"/>
</g>
</g>
</svg>
