<?xml version="1.0" encoding="utf-8"?>
<!-- Generator: Adobe Illustrator 26.1.0, SVG Export Plug-In . SVG Version: 6.00 Build 0)  -->
<svg version="1.2" baseProfile="tiny" id="Calque_1"
	 xmlns="http://www.w3.org/2000/svg" xmlns:xlink="http://www.w3.org/1999/xlink" x="0px" y="0px" viewBox="0 0 595.3 841.9"
	 overflow="visible" xml:space="preserve">
<g>
	<path d="M292.4,704.2c-1.2-1-1.5-2.4-1.8-3.8c-3.4-16.8-6.8-33.7-10.2-50.5c-2.8-13.6-5.5-27.2-8.3-40.9c-0.1-0.4-0.2-0.8-0.4-1.4
		c-18.6-2-36.6-6.7-53.8-14.4c-17.2-7.6-32.9-17.7-47.2-30.4c-1.7,1.1-3.5,2.2-5.2,3.3c-7,4.6-14,9.3-20.9,13.9
		c-5.9,3.9-11.8,7.9-17.7,11.8c-2.9,1.9-5.7,3.8-8.6,5.6c-1.3,0.8-2.4,0.8-3.3-0.1c-1-1-1.2-2.1-0.3-3.5c2.1-3.3,4.3-6.5,6.5-9.8
		c4.5-6.8,9-13.6,13.5-20.3c4.7-7.1,9.4-14.1,14-21.2c0.3-0.5,0.7-1.1,1.1-1.8c-21.7-27.4-34.5-58.4-38.5-93.1
		c-4.4-0.9-8.6-1.8-12.8-2.6c-26.1-5.3-52.3-10.6-78.4-15.9c-1.2-0.3-2.3-1.2-3.5-1.8c0-0.6,0-1.3,0-1.9c1.3-1.5,3-1.9,4.8-2.3
		c29.4-5.9,58.9-11.9,88.3-17.9c0.6-0.1,1.2-0.3,2-0.5c5.1-37.3,20.2-69.9,45.3-98c-2.1-3.2-4.2-6.3-6.2-9.4
		c-4.8-7.3-9.7-14.7-14.5-22c-4.1-6.1-8.2-12.2-12.2-18.3c-3.1-4.7-6.2-9.5-9.3-14.2c-1.1-1.7-1.1-2.9-0.1-3.8
		c1-0.9,2.2-0.9,3.7,0.1c6.9,4.6,13.8,9.2,20.7,13.8c8.2,5.4,16.4,10.8,24.6,16.2c6.7,4.4,13.4,8.9,20.3,13.4
		c12.8-9.4,26.7-17.1,41.5-22.8c14.7-5.8,30-9.4,45.9-11.2c0.9-4.2,1.7-8.2,2.5-12.3c5.1-24.9,10.1-49.8,15.2-74.7
		c0.6-2.7,1.1-5.5,1.7-8.2c0-0.2,0.1-0.5,0.1-0.7c0.5-2.5,1.4-3.5,2.9-3.5c1.6,0,2.5,1,3,3.4c0.4,1.7,0.7,3.4,1,5.2
		c6,29.5,12,59,17.9,88.5c0.6,2.9,0.6,2.9,3.5,3.4c26,4.2,50,13.5,72,28.2c3.2,2.1,6.3,4.4,9.5,6.7c4.1-2.7,8.2-5.4,12.4-8.1
		c4.7-3.1,9.3-6.2,13.9-9.3c4.9-3.2,9.7-6.4,14.6-9.6c8.9-5.9,17.9-11.8,26.8-17.7c0.7-0.4,1.3-0.9,2-1.4c1.4-1,2.9-1.1,3.7-0.3
		c1.1,0.9,1.1,2.3,0.1,3.9c-4,6.1-8.1,12.3-12.2,18.4c-5.8,8.8-11.6,17.6-17.4,26.4c-4.5,6.8-9,13.6-13.5,20.4
		c-0.8,1.2-1.6,2.4-2.5,3.9c22.5,26.8,36.4,57.5,41.4,92.5c2.5,0.5,5,1.1,7.4,1.6c30.5,6.2,61.1,12.4,91.6,18.6
		c1.4,0.3,2.5,0.8,3.3,2.1c0,0.6,0,1.3,0,1.9c-0.7,1.1-1.8,1.6-3.1,1.9c-31.7,6.4-63.4,12.8-95.1,19.3c-4.1,0.8-3.5-0.2-4.1,4.4
		c-4.3,30.4-15.5,57.9-33.7,82.5c-0.2,0.3-0.4,0.5-0.6,1c1.8,2.8,3.7,5.7,5.6,8.5c6.8,10.3,13.6,20.6,20.5,30.9
		c3.9,5.9,7.9,11.8,11.8,17.7c0.4,0.7,0.9,1.4,1.1,2.1c0.5,2.2-1.3,3.6-3.3,2.8c-0.6-0.2-1.1-0.6-1.7-0.9
		c-13-8.6-25.9-17.2-38.9-25.8c-5.6-3.7-11.2-7.4-16.9-11.2c-27.8,25.4-60.3,40.8-97.7,46.3c-0.4,1.9-0.9,3.8-1.3,5.7
		c-6,29.4-11.9,58.9-17.9,88.3c-0.2,1.1-0.9,2.2-1.4,3.2C294.3,704.2,293.3,704.2,292.4,704.2z M291,250.9
		c-99.2,0.2-177.1,80.5-177.2,176.6c-0.1,97.9,78.7,177.1,176.5,177.5c96.5,0.4,177.2-77.4,177.6-176.7
		C468.2,330.6,388.8,251.1,291,250.9z M470.4,448c1.3-0.2,2.3-0.4,3.2-0.6c31.5-6.4,62.9-12.8,94.4-19.1c0.7-0.1,1.5-0.2,2.1-0.6
		c0.4-0.2,0.9-0.8,0.9-1.3c0-0.5-0.5-1.2-0.9-1.5c-0.5-0.3-1.2-0.4-1.8-0.5c-13.8-2.8-27.5-5.6-41.3-8.4
		c-18.3-3.7-36.6-7.4-54.9-11.2c-0.6-0.1-1.2,0-1.9,0C471.8,419.3,471.9,433.5,470.4,448z M314.8,248.6c-0.1-0.4-0.1-0.7-0.2-1
		c-2.8-13.7-5.5-27.4-8.3-41.1c-3.7-18-7.3-36-11-54c-0.2-1.1-0.4-2.2-1.7-2.3c-1.3,0-1.6,1.1-1.8,2.2c0,0.2-0.1,0.3-0.1,0.5
		c-1.8,8.8-3.6,17.7-5.4,26.5c-4.5,22.2-9,44.4-13.5,66.7c-0.1,0.6-0.1,1.3-0.1,1.8c7.2-0.2,14.1-0.6,21.1-0.4
		C300.7,247.6,307.6,248.2,314.8,248.6z M273.2,607.8c0.1,0.8,0.1,1.4,0.2,1.9c6.1,30.3,12.3,60.7,18.5,91c0.1,0.5,0.1,1,0.4,1.4
		c0.4,0.4,1,1,1.4,1c0.5,0,1.1-0.6,1.4-1.1c0.3-0.4,0.3-1.1,0.4-1.6c0.5-2.7,1.1-5.3,1.6-8c4.9-24.1,9.8-48.2,14.7-72.3
		c0.9-4.2,1.7-8.4,2.6-13C300.6,608.8,287,609.2,273.2,607.8z M111.5,406.2c-1.6,0.3-2.9,0.5-4.1,0.8c-25.8,5.2-51.5,10.4-77.3,15.7
		c-3.3,0.7-6.6,1.3-9.9,2c-1,0.2-2.2,0.4-2.2,1.8c0,1.2,1.1,1.4,2,1.6c1.3,0.2,2.5,0.5,3.8,0.8c24.1,4.9,48.2,9.8,72.3,14.7
		c4.8,1,9.7,1.9,14.9,3C109.8,433,109.9,419.8,111.5,406.2z M427.5,309.9c0.9-1.4,1.8-2.5,2.6-3.7c4.4-6.7,8.8-13.3,13.2-20
		c4-6,8-12,11.9-18c5.2-7.9,10.4-15.7,15.6-23.6c0.9-1.3,1.8-2.6,2.6-4c0.2-0.4,0.1-1.2-0.2-1.7c-0.4-0.6-1.1-0.6-1.7-0.2
		c-0.8,0.5-1.6,1-2.4,1.5c-5,3.3-10,6.6-15,9.9c-4.3,2.8-8.5,5.6-12.8,8.5c-6,4-12,8-17.9,11.9c-6.6,4.4-13.2,8.7-19.8,13.1
		c-0.6,0.4-1.2,1-2.1,1.6C411,292.6,419.6,300.8,427.5,309.9z M157.7,305.8c7.7-8.4,16-15.8,25-22.6c-0.5-0.4-0.7-0.6-1-0.8
		c-7.6-5-15.1-10.1-22.7-15.1c-12-8-24.1-15.9-36.1-23.9c-1.9-1.2-3.7-2.5-5.6-3.7c-0.5-0.3-1.5-0.3-1.9,0c-0.4,0.3-0.3,1.3-0.2,1.9
		c0.1,0.4,0.5,0.8,0.7,1.2c6.1,9.2,12.2,18.4,18.2,27.6c6.9,10.4,13.7,20.8,20.6,31.1C155.7,302.9,156.6,304.3,157.7,305.8z
		 M434.8,537.7c-6.8,7.5-13.4,14.9-20.2,22.3c1.4,1,3,2,4.5,3c8,5.4,16,10.7,24.1,16.1c8.8,5.8,17.6,11.6,26.3,17.4
		c0.5,0.4,1.1,0.8,1.7,0.9c0.5,0.1,1.4,0.1,1.7-0.2c0.3-0.3,0.2-1.1,0.1-1.7c0-0.3-0.3-0.5-0.5-0.8c-1.4-2.2-2.9-4.4-4.3-6.6
		c-8.2-12.4-16.4-24.7-24.6-37.1C440.6,546.5,437.7,542.1,434.8,537.7z M150.4,542.2c-0.2,0.2-0.6,0.5-0.8,0.9
		c-3.5,5.3-7.1,10.6-10.6,16c-5.9,8.9-11.8,17.8-17.7,26.8c-1.8,2.8-3.7,5.6-5.5,8.4c-0.5,0.8-1,1.6-0.2,2.4
		c0.8,0.8,1.6,0.2,2.4-0.2c0.3-0.2,0.5-0.4,0.8-0.6c1.4-1,2.9-2,4.4-3c6.8-4.5,13.6-8.9,20.4-13.4c7.1-4.7,14.2-9.4,21.3-14.1
		c1.6-1,3.1-2.1,4.5-3.1C163,555.5,156.7,548.9,150.4,542.2z"/>
	<path d="M290.7,552.5c-69.4-0.3-124.9-56.3-124.6-125.5c0.3-68.7,56.7-124.5,125.6-124c68.9,0.5,124.4,56.5,124,125.6
		C415.4,495.8,360.9,552.4,290.7,552.5z M261.5,437.5c4.2-9.8,8.1-19.5,11-29.6c2.9,7,5.1,14.1,6.4,21.4c1.4,7.4,2.4,14.9,3.7,22.4
		c1.1,0.4,2.2,0.8,3.3,1.1c1.2,0.4,2.4,0.6,3.8,1c-1.1-18.6-5.1-36.2-12-53.7c3,0.7,5.4,1.2,7.8,1.8c12.6,3.3,22.8,10.2,30.8,20.4
		c6.1,7.7,10.2,16.5,12.9,26c0.7,2.5,1.3,5.1,2,7.7c0.4,0,0.7,0.1,1,0.1c3.3-0.5,6.7-0.8,10-1.4c23.8-4.2,46.4-11.9,68.3-21.9
		c1.4-0.6,1.9-1.4,1.9-2.9c0-7.5-0.5-15-1.8-22.4c-3.9-22.6-13.5-42.5-28.6-59.7c-0.4-0.5-0.9-0.9-1.3-1.3
		c-18.7,20.5-46.1,25.3-67.2,17.3c-25.5-9.6-38.9-28.5-42-55.4c-20.7,3.5-39.2,11.5-55.4,24.5c-21.7,17.2-36,39.4-42.7,66.3
		c-3.7,14.8-4.5,29.7-2.4,45c1.2-0.2,2-0.3,2.9-0.5c19.8-3.8,39.5-7.8,59.5-10.6c5.5-0.8,11.1-1.4,16.7-1.2
		c4.4,0.2,8.2,1.5,10.9,5.1C260.9,436.9,261.1,437.1,261.5,437.5z M399.6,481.2c-0.8,0.3-1.2,0.4-1.6,0.6c-8,3.1-16,6.3-24.1,9.2
		c-12.7,4.4-25.8,7.7-39.1,9.8c-9,1.4-18.1,2.4-27.2,1.9c-5.3-0.3-10.7-0.8-15.9-1.6c-6.9-1-13.5-3.2-19.9-6
		c-4.5-1.9-8.8-4.2-12.3-7.7c-1.8-1.8-3.4-3.8-4.9-5.8c-1.6-2.1-3.6-3.4-6.2-3.7c-2.6-0.3-5.3-0.5-7.9-0.3
		c-8.9,0.5-17.6,1.9-26.3,3.4c-5.9,1-11.8,2.1-17.6,3.1c-3.8,0.7-7.6,1.5-11.8,2.2c1.1,1.9,2,3.5,3,5.1
		c6.9,11.3,15.5,21.1,25.7,29.6c1.1,0.9,2,1.3,3.5,1c3.4-0.6,6.8-1,10.2-1.5c5.9-0.9,11.9-1.6,17.9-1.4c4.7,0.1,8.5,1.7,11.3,5.7
		c1.3,1.8,2.8,3.5,4.4,5.1c3.9,3.7,8.6,6,13.5,8c7.6,3,15.4,5.1,23.6,5.9c6,0.6,12.1,1.1,18.2,0.6c1.8-0.2,3.5-0.1,5.3-0.3
		c2.7-0.3,5.5-0.3,8-1.2c31-10.6,54.1-30.4,69.6-59.3C399,482.8,399.2,482.1,399.6,481.2z M171.1,446.4c2.1,13.5,6.3,26.1,12.7,38.1
		c1.8-0.3,3.5-0.6,5.2-0.9c7.1-1.3,14.1-2.6,21.2-3.9c4.7-0.8,9.5-1.5,14.2-2.3c6.2-1.1,12.5-1.7,18.8-1.8c1.8,0,3.7,0.1,5.5,0.4
		c3.5,0.6,6.1,2.7,8.1,5.5c2.7,3.9,6.1,6.9,10.3,9.2c11.3,6.2,23.6,9.3,36.4,10c12.1,0.7,24.1-0.3,36-2.6c8.5-1.6,16.8-3.6,25.1-6
		c11-3.3,21.8-7.2,32.4-11.7c4.4-1.9,4.4-1.9,6.3-6.4c4.7-11.4,7.6-23.2,8.7-35.5c0.1-1.2,0-2.4,0-3.9c-12.9,6-25.9,11-39.2,15.1
		c-13.4,4.1-27,7.1-40.9,8.8c0.5,3.2,0.9,6.2,1.4,9.3c-14.3-1.6-28.2-1.5-42.4-0.1c-0.3-3.9-0.5-7.5-0.8-11.2
		c-2.4-0.7-4.8-1.4-7.2-2.2c-0.1,4.9,0.7,9.7,0.3,14.4c-4.1,0.8-8,1.5-11.9,2.4c-5,1.2-9.9,2.5-14.8,3.8c-0.8,0.2-1.8,0.5-2.5,0.3
		c-2.3-0.6-4.6-1.5-7.2-2.4c1.8-5.4,4.3-10.8,6.7-16.3c2.4-5.5,4.7-10.9,7.1-16.3c-0.4-0.6-0.8-1-1-1.4c-2.1-3.3-5.2-4.7-8.9-4.8
		c-2.6-0.1-5.3-0.2-7.9,0.1c-6.4,0.7-12.9,1.4-19.2,2.5c-14.6,2.5-29.1,5.3-43.6,7.9C176.9,445.2,174.1,445.8,171.1,446.4z
		 M273.4,307.9c0.5,21.5,15.1,46.2,42.1,54.8c26,8.3,51.9-3,63.5-18c-12.2-13.5-31.6-26.9-54.5-33.4
		C307.7,306.5,290.7,305.3,273.4,307.9z M315.9,545.9c-1,0-1.9,0-2.9,0c-6.4,0.2-12.8-0.2-19.1-1.1c-7.1-1-14-3-20.7-5.7
		c-5.8-2.4-11.3-5.2-15.6-9.9c-1.3-1.5-2.5-3.1-3.8-4.7c-1.3-1.7-3-2.7-5.1-3.3c-3.4-0.9-6.8-0.9-10.2-0.6c-3.5,0.3-7,0.7-10.5,1.2
		c-3.6,0.5-7.2,1.1-11.3,1.7c13.7,10.5,28.3,17.6,44.5,21.6C279.4,549.8,297.7,550.1,315.9,545.9z"/>
	<path d="M247.7,300.9c-2.7-11.1-5.4-22-8.2-33.1c1.1-0.3,2-0.5,3-0.8c2.2-0.5,4.5-1.1,6.8-1.6c1.3-0.2,2.7-0.3,4-0.2
		c1.1,0.1,2.2,0.5,3.1,1c3.4,1.6,6,10.9,2.3,14.1c-0.2,0.2-0.4,0.5-0.7,0.9c2.8,4.9,5.6,9.8,8.5,15c-2.1,0.5-4,1-6,1.5
		c-2.6-4.7-5.1-9.3-7.7-14.1c-0.9,0.2-1.8,0.3-2.9,0.5c1.2,5.1,2.4,10,3.7,15.2C251.7,300,249.9,300.4,247.7,300.9z M249.1,280.5
		c2.4-0.7,5-0.7,5.5-3.5c0.5-2.4,0-4.9-2-6.6c-1.8-1.6-3.9-0.4-6,0.2C247.5,273.9,248.2,277.1,249.1,280.5z"/>
	<path d="M213.6,299.4c-0.6,0.4-1.4,0.8-2.3,1.3c2.6,4.5,5,8.9,7.6,13.5c-1.7,1-3.4,2-5.4,3.1c-5.6-9.9-11.2-19.7-16.9-29.7
		c3.9-2,7.3-4.6,11.3-5.9c3.6-1.1,6.4-0.1,8.6,2.9c0.6,0.8,1.1,1.7,1.6,2.7c1.3,2.6,1.7,5.3,0.1,7.8c4.1,4.1,8,8.2,12.2,12.4
		c-2,1.1-3.6,2.1-5.1,3C221.5,306.8,217.6,303.1,213.6,299.4z M204.3,288.4c1.7,3.1,3.4,5.9,5,8.8c2.1-1.1,4.3-1.8,4.4-4.4
		c0-2.6-1.2-4.7-3.3-6C208.1,285.4,206.4,287.2,204.3,288.4z"/>
	<path d="M373.9,282.5c2.1,1.2,3.8,2.3,5.7,3.4c-3.8,11-7.5,21.8-11.4,32.9c-1.7-1-3.2-1.9-4.9-2.9c0.9-2.5,1.8-4.9,2.7-7.5
		c-1.7-1-3.2-1.9-5-2.9c-1.7,2-3.5,3.9-5.3,6c-1.6-1-3.2-1.9-5-2.9C358.6,299.7,366.2,291.2,373.9,282.5z M372.1,292.8
		c-0.2-0.1-0.3-0.2-0.5-0.3c-2.6,3.2-5.3,6.4-8,9.7c1.5,0.8,2.6,1.5,4,2.3C369.1,300.5,370.6,296.7,372.1,292.8z"/>
	<path d="M321.2,287.9c1.8,0.2,3.4,0.3,5.1,0.5c-0.1,1.2-0.4,2.1-0.3,3.1c0,0.9,0.2,1.9,0.5,2.8c0.5,1.2,1.7,1.7,2.9,1.6
		c1.2-0.1,1.9-0.8,2.3-1.9c0.8-2.1,0.6-4.1-0.5-6c-1.3-2.1-2.7-4.1-4-6.3c-0.7-1.2-1.4-2.3-1.8-3.6c-1.1-3.4-0.3-6.5,1.7-9.3
		c0.1-0.2,0.3-0.4,0.5-0.5c2.9-2.8,6.2-2.6,9.6-1.4c3.2,1.1,4.9,3.4,5.1,6.8c0,1.2-0.2,2.5-0.3,4c-1.9-0.2-3.5-0.4-5.4-0.6
		c0.1-1.1,0.3-2,0.3-2.9c0.1-2-0.9-3.2-2.6-3.4c-1.6-0.2-2.6,0.7-3.2,2.6c-0.5,1.8,0,3.3,0.9,4.8c1.4,2.2,2.8,4.3,4.1,6.5
		c1.8,2.9,2.6,6,1.8,9.4c-1.2,5-5.4,7.6-10.3,6.3C321.6,299,319.1,294.2,321.2,287.9z"/>
	<path d="M188.8,338.4c-8-8.2-15.8-16.3-23.7-24.5c3.4-3.3,6.8-6.5,10.1-9.8c1,1,1.9,2,3,3.1c-1.8,1.8-3.6,3.6-5.6,5.6
		c2.3,2.4,4.4,4.6,6.7,7c1.5-1.4,3-2.8,4.6-4.3c0.9,1.1,1.8,2.1,2.8,3.3c-1.3,1.3-2.7,2.7-4.3,4.3c2.8,2.6,5.5,5,8.4,7.6
		c1.5-1.4,3.3-3.2,5.3-5.1c1,1,1.9,2,3,3.1C195.7,331.8,192.3,335,188.8,338.4z"/>
	<path d="M283.2,260.6c2.1,0,3.8,0,5.8,0c1.3,4.3,2.5,8.5,3.8,12.8c0.1,0,0.3,0,0.4,0c1.3-4.1,2.6-8.3,4-12.4c1.9,0,3.6,0,5.6,0
		c-0.3,0.9-0.5,1.7-0.7,2.4c-1.9,5.5-3.8,11-5.6,16.5c-0.4,1.3-0.6,2.6-0.7,4c-0.2,3.6-0.2,7.2-0.3,10.9c-2,0-3.8,0-5.9,0
		c0-1.4-0.1-2.7,0-3.9c0.6-6.3-0.4-12.4-2.6-18.3C285.5,268.7,284.5,264.8,283.2,260.6z"/>
	<path d="M141.1,345.2c2.6-4,5-7.8,7.6-11.8c1.3,0.8,2.4,1.5,3.6,2.3c-1.4,2.2-2.7,4.3-4.2,6.6c2.8,1.8,5.5,3.5,8.3,5.3
		c1.2-1.8,2.3-3.4,3.5-5.3c1.2,0.8,2.3,1.5,3.6,2.3c-1.1,1.8-2.1,3.5-3.3,5.4c4.3,2.8,8.6,5.5,13,8.4c-1.1,1.8-2.1,3.4-3.3,5.2
		C160.3,357.5,150.8,351.4,141.1,345.2z"/>
	<path d="M427.6,329.7c1.2,1.7,2.3,3.3,3.6,5.1c-8.2,5.7-16.3,11.3-24.6,17c1.6,2.3,3,4.5,4.6,6.8c-1.1,0.8-2.1,1.5-3.4,2.4
		c-2.8-3.9-5.4-7.9-8.3-11.9C408.9,342.5,418.2,336.1,427.6,329.7z"/>
	<path d="M405.5,305.3c1.6,1.5,3,2.8,4.5,4.2c-7.8,8.3-15.6,16.4-23.4,24.7c-1.5-1.4-2.9-2.7-4.5-4.2
		C389.8,321.8,397.5,313.7,405.5,305.3z"/>
	<path d="M259.6,559.9c1.5-0.3,2,0.2,2.2,1.4c0.7,4.7,1.5,9.3,2.3,13.9c0.3,2,0.7,4.1,1.4,6.1c1.6-6.5,3.2-12.9,4.8-19.5
		c0.8,0.2,1.4,0.3,2.2,0.5c-2.2,8.9-4.3,17.6-6.4,26.4c-1.4,0.3-1.9-0.3-2.1-1.5c-0.9-5.8-1.9-11.7-2.8-17.5
		c-0.1-0.9-0.3-1.7-0.9-2.6c-1.6,6.5-3.2,13-4.9,19.6c-0.7-0.1-1.3-0.2-2.2-0.3C255.3,577.5,257.5,568.7,259.6,559.9z"/>
	<path d="M203.1,564.1c-0.8-0.6-1.3-1.1-2-1.6c1.7-4.4,3.5-8.6,5.2-13.1c-1.2-0.9-2.2-1.7-3.4-2.6c-2.9,3.6-5.7,7-8.6,10.6
		c-0.7-0.5-1.3-0.9-2.1-1.5c5.8-7.3,11.6-14.5,17.5-21.9c2.2,1.7,4.3,3.1,6.2,4.8c2.3,2,2.6,4.3,1,6.9c-0.7,1.2-1.6,2.2-2.5,3.2
		c-1.5,1.7-3.5,2-5.8,1.6C206.8,555.1,205,559.4,203.1,564.1z M204.2,545.3c0.7,0.6,1.3,1.1,1.8,1.5c3.7,2.7,5.7,2.4,8.3-1.4
		c0.3-0.4,0.5-0.8,0.7-1.2c0.7-1.4,0.6-2.7-0.6-3.7c-1.2-1.1-2.6-2-3.9-3.1C208.4,540.1,206.4,542.6,204.2,545.3z"/>
	<path d="M386,547.1c4,2.9,7.8,5.6,11.7,8.5c-0.7,0.6-1.3,1-2,1.6c-3.8-2.8-7.6-5.5-11.5-8.3c-1.2,0.9-2.3,1.6-3.6,2.6
		c2.7,3.6,5.3,7,8,10.6c-0.7,0.5-1.3,1-2.1,1.6c-5.6-7.3-11-14.5-16.6-21.9c2.4-1.6,4.5-3.3,6.9-4.6c2.7-1.5,5-1.1,7.1,1.2
		c0.7,0.7,1.3,1.6,1.9,2.5C387.2,542.8,387.4,544.9,386,547.1z M379.4,549.9c0.8-0.6,1.4-0.9,2-1.4c3.8-2.7,4-4.9,0.8-8.3
		c-0.2-0.2-0.4-0.5-0.7-0.7c-1.2-1-2.6-1.3-4-0.5c-1.4,0.8-2.7,1.8-4.2,2.8C375.5,544.7,377.4,547.2,379.4,549.9z"/>
	<path d="M365.6,571.8c-0.1,2-0.9,3.7-2.5,4.7c-1.3,0.8-2.8,1.5-4.4,1.9c-2.1,0.5-4-0.1-5.4-1.7c-0.9-1.1-1.7-2.3-2.3-3.6
		c-1.6-3.5-3.2-7-4.7-10.5c-0.1-0.3-0.2-0.6-0.4-0.9c-2.1-5.6,1.2-10.4,7.3-10.3c1.6,0,3,0.6,4,1.8c0.7,0.8,1.4,1.7,1.9,2.7
		c1.9,4,3.7,8.1,5.5,12.2C365.1,569.2,365.3,570.5,365.6,571.8z M353.5,553.6c-4.1-0.3-6.8,2.7-5.5,5.9c1.9,4.9,4.2,9.6,6.4,14.4
		c0.1,0.3,0.3,0.5,0.5,0.8c1.1,1.5,2.5,1.8,4.2,1.4c3.1-0.7,4.3-2.9,3.4-5.9c-0.2-0.5-0.4-1.1-0.6-1.6c-1.6-3.7-3.3-7.4-5-11.1
		c-0.4-0.9-0.9-1.9-1.6-2.6C354.8,554.3,353.9,553.9,353.5,553.6z"/>
	<path d="M442.3,416.8c6.1,0,11.1,5,11.1,11.1c0,6.2-5.1,11.2-11.3,11.1c-6.1-0.1-11.1-5.1-11-11.2
		C431.2,421.6,436.2,416.7,442.3,416.8z M442.1,436.6c4.9,0.1,8.9-3.8,9-8.6c0-4.7-3.8-8.7-8.6-8.8c-4.9-0.1-8.9,3.8-9,8.6
		C433.5,432.5,437.3,436.5,442.1,436.6z"/>
	<path d="M139.6,439c-6.2,0-11.2-4.9-11.2-11c-0.1-6.2,5-11.2,11.3-11.2c6.1,0,11.1,5,11.1,11.1C150.7,434,145.7,439,139.6,439z
		 M139.4,436.6c4.8,0.1,8.8-3.7,8.9-8.5c0.1-4.7-3.8-8.8-8.5-8.9c-4.9-0.1-9,3.7-9,8.6C130.7,432.5,134.6,436.5,139.4,436.6z"/>
	<path d="M237.6,551.6c0.9,0.4,1.6,0.7,2.6,1.1c-2.3,9-4.5,18-6.9,27.1c-0.8-0.3-1.5-0.6-2.4-0.9c0.7-2.4,1.3-4.7,2-7.2
		c-2-0.9-3.9-1.8-6-2.7c-1.5,2-3,3.9-4.6,5.9c-0.7-0.3-1.4-0.5-2.4-0.9C225.9,566.4,231.7,559,237.6,551.6z M233.4,569.8
		c1.2-4.5,2.4-8.9,3.6-13.2c-0.2-0.1-0.3-0.1-0.5-0.2c-2.8,3.6-5.5,7.2-8.5,11C230,568.3,231.5,569,233.4,569.8z"/>
	<path d="M324.1,588.6c-0.9,0.2-1.6,0.3-2.6,0.5c-1.8-8.9-3.5-17.7-5.3-26.7c2.9-0.5,5.5-1.2,8.2-1.5c2.7-0.3,4.7,0.9,5.7,3.4
		c0.5,1.2,0.8,2.6,1,3.9c0.3,3.4-1.4,5.9-4.8,6.8c-1.5,0.4-2.9,0.7-4.6,1C322.5,580.3,323.3,584.4,324.1,588.6z M321.3,574.1
		c1.7-0.4,3.2-0.6,4.6-1c1.8-0.6,2.7-1.7,2.6-3.6c-0.1-1.6-0.5-3.1-0.9-4.6c-0.4-1.4-1.6-2.1-2.9-2c-1.8,0.1-3.5,0.6-5.4,0.9
		C320,567.4,320.6,570.6,321.3,574.1z"/>
	<path d="M301,570.4c-0.8,0.2-1.4,0.4-2.1,0.5c-0.2-0.3-0.3-0.5-0.3-0.7c-0.2-0.6-0.3-1.2-0.4-1.9c-0.5-1.6-1.6-2.6-3.3-2.7
		c-1.6-0.2-3.1,0-4,1.5c-0.9,1.5-0.9,3.1,0,4.5c0.4,0.7,1.1,1.4,1.7,2c1.7,1.6,3.5,3.1,5,4.8c1.2,1.4,2.3,2.9,2.9,4.6
		c1.3,3.7-0.5,7.2-4,8.2c-4.1,1.2-7.8-0.8-8.8-4.7c-0.2-0.8-0.2-1.5-0.3-2.5c0.8-0.2,1.5-0.3,2.2-0.5c0.3,1.2,0.5,2.2,0.8,3.1
		c0.8,2.3,2.8,3.2,5.2,2.6c2.1-0.5,3-2.2,2.7-4.7c-0.2-1.6-1-2.8-2.1-3.9c-2-2-4.1-4-6.2-6c-1.9-1.8-2.5-4-2-6.6
		c0.2-0.8,0.5-1.6,0.9-2.2c1.9-2.5,4.6-2.6,7.4-2.2c2.4,0.4,3.8,1.9,4.3,4.3C300.7,568.7,300.8,569.4,301,570.4z"/>
	<path d="M174,538.6c-0.6-0.7-1.1-1.2-1.7-2c6.7-5.6,13.3-11,20-16.6c-1.1-1.4-2.1-2.6-3.2-4c0.5-0.4,0.9-0.8,1.5-1.3
		c2.8,3.1,5.5,6.2,8.3,9.5c-0.5,0.5-0.9,0.9-1.5,1.4c-1.1-1.2-2.1-2.3-3.4-3.7C187.4,527.4,180.9,533,174,538.6z"/>
	<path d="M396.4,522.3c-1.3,1.3-2.4,2.5-3.6,3.7c-0.5-0.3-0.9-0.6-1.6-1.1c2.9-3.2,5.8-6.3,8.8-9.5c0.5,0.4,1,0.7,1.6,1.2
		c-1.1,1.3-2.2,2.5-3.3,3.8c6.4,5.6,12.8,11,19.2,16.6c-0.6,0.7-1.1,1.2-1.8,2C409.2,533.4,402.9,528,396.4,522.3z"/>
	<path d="M297.2,366.1c-0.1,1-0.1,1.5-0.3,1.8c-3.6,6.4-7.2,12.8-10.8,19.2c-0.4,0.6-0.7,1.4-1.8,0.3c3.8-6.8,7.7-13.7,11.6-20.5
		C296,366.7,296.3,366.6,297.2,366.1z"/>
	<path d="M271.2,331.5c-1,1-19,10.6-20.1,10.7c-0.2,0-0.5-0.3-1.1-0.6c0.9-0.6,1.5-1,2.2-1.3c6.1-3.1,12.2-6.2,18.3-9.2
		C270.5,330.9,270.8,331.2,271.2,331.5z"/>
	<path d="M367.3,365.2c0.9,0.8,9.1,16.4,9.3,17.6c0,0.2-0.3,0.5-0.5,0.7c-1.2-1.1-7-11.8-9-16.7c-0.1-0.3-0.2-0.7-0.2-1.1
		C366.8,365.5,367.1,365.4,367.3,365.2z"/>
	<path d="M350.1,473.4c-1,1.4-1.6,2.4-2.4,3.3c-4.7,5.8-8.8,12-12.2,18.5c-0.8,1.5-2.1,1.9-3.5,2.1c-9.4,1.4-18.9,1.6-28.4,1.1
		c-12-0.6-23.5-3.7-34.3-9.2c-2.8-1.4-5.5-3.2-8-5.9C290.6,477.6,320,475.2,350.1,473.4z"/>
</g>
</svg>
