<svg width="54" height="16" viewBox="0 0 54 16" fill="none" xmlns="http://www.w3.org/2000/svg">
<path d="M39.2548 0.655382C37.9999 0.213262 36.6733 -0.00859599 35.3377 0.00025473C31.0183 0.00025473 27.9678 2.10397 27.9462 5.12383C27.9192 7.34239 30.114 8.59261 31.7742 9.33387C33.4777 10.096 34.0473 10.5763 34.0419 11.2575C34.0311 12.2937 32.6813 12.7635 31.426 12.7635C29.7009 12.7635 28.7588 12.5312 27.3091 11.9492L26.7719 11.7064L26.1591 15.183C27.2092 15.6059 29.1016 15.9687 31.0561 16C35.6482 16 38.6501 13.9093 38.6852 10.6963C38.723 8.92409 37.5352 7.58512 35.0353 6.47845C33.5155 5.76068 32.5733 5.28043 32.5733 4.55222C32.5733 3.90753 33.3805 3.21847 35.0677 3.21847C36.1907 3.19221 37.3066 3.3959 38.3423 3.81618L38.7473 3.99105L39.3601 0.631891L39.2548 0.655382ZM50.4635 0.282142H47.089C46.0389 0.282142 45.2479 0.56142 44.789 1.56891L38.2992 15.7834H42.8912L43.809 13.4526L49.4134 13.4578C49.5457 14.0033 49.9506 15.7834 49.9506 15.7834H54L50.4635 0.282142ZM21.7344 0.151638H26.1105L23.3731 15.6607H19.0024L21.7344 0.146418V0.151638ZM10.6256 8.69963L11.0791 10.8529L15.3553 0.282142H19.9905L13.1038 15.7625H8.47943L4.7 2.6547C4.63878 2.43856 4.49503 2.25293 4.29775 2.13529C2.93554 1.45495 1.49219 0.938647 0 0.597959L0.059391 0.2717H7.10263C8.05829 0.308241 8.82767 0.59796 9.08414 1.58457L10.6229 8.70746V8.69963H10.6256ZM45.0643 10.2813L46.8083 5.94339C46.7867 5.99037 47.1673 5.04813 47.3887 4.46609L47.6883 5.80506L48.7007 10.2787H45.0616V10.2813H45.0643Z" fill="white"/>
</svg>
